<svg xmlns="http://www.w3.org/2000/svg" viewBox="0 0 100 100">
  <defs>
    <linearGradient id="slGradient" x1="0%" y1="0%" x2="100%" y2="100%">
      <stop offset="0%" style="stop-color:#1e3a5f"/>
      <stop offset="100%" style="stop-color:#ef4444"/>
    </linearGradient>
  </defs>
  
  <!-- Rounded square background -->
  <rect width="100" height="100" rx="22" fill="url(#slGradient)"/>
  
  <!-- S Letter - Bold filled S -->
  <path d="M 27 28 C 23 28, 21 30, 21 34 L 21 38 C 21 42, 24 44, 28 44 L 32 44 C 35 44, 37 46, 37 48 L 37 52 C 37 56, 34 58, 30 58 L 26 58 C 22 58, 20 60, 20 64 L 20 68 C 20 72, 23 74, 27 74 L 39 74 C 43 74, 45 72, 45 68 L 45 64 C 45 60, 42 58, 38 58 L 34 58 C 31 58, 29 56, 29 52 L 29 48 C 29 44, 32 42, 36 42 L 40 42 C 43 42, 45 40, 45 36 L 45 32 C 45 28, 43 26, 39 26 Z" 
        fill="white"/>
  
  <!-- L Letter - Bold filled L -->
  <rect x="51" y="28" width="13" height="32" fill="white"/>
  <rect x="51" y="56" width="25" height="13" fill="white"/>
</svg>